# xmcd
#
# Track frame offsets:
#	150
#	14302
#	23788
#	41010
#	57440
#	69401
#
# Disc length: 1096 seconds
#
# Revision: 0
# Processed by: cddbd v1.5.2PL0 Copyright (c) Steve Scherf et al.
# Submitted via: EasyCDDAExtractor 12.0.1.1
#
DISCID=48044606
DTITLE=The Devil Rides Out - Volume III
DYEAR=2008
DGENRE=Hard Rock
TTITLE0=Slow Gun
TTITLE1=Fiftyonepercent
TTITLE2=The Shape Of A Heart
TTITLE3=Meet Joe Blues
TTITLE4=The World Has Fangs
TTITLE5=Six (I Got Your)
EXTD=
EXTT0=
EXTT1=
EXTT2=
EXTT3=
EXTT4=
EXTT5=
PLAYORDER=
